<svg width="136" height="48" viewBox="0 0 136 48" fill="none" xmlns="http://www.w3.org/2000/svg">
<path d="M26.9223 29.105C26.2223 29.105 25.5923 28.985 25.0323 28.745C24.4723 28.495 24.0323 28.145 23.7123 27.695C23.3923 27.245 23.2323 26.72 23.2323 26.12H25.0623C25.1023 26.57 25.2773 26.94 25.5873 27.23C25.9073 27.52 26.3523 27.665 26.9223 27.665C27.5123 27.665 27.9723 27.525 28.3023 27.245C28.6323 26.955 28.7973 26.585 28.7973 26.135C28.7973 25.785 28.6923 25.5 28.4823 25.28C28.2823 25.06 28.0273 24.89 27.7173 24.77C27.4173 24.65 26.9973 24.52 26.4573 24.38C25.7773 24.2 25.2223 24.02 24.7923 23.84C24.3723 23.65 24.0123 23.36 23.7123 22.97C23.4123 22.58 23.2623 22.06 23.2623 21.41C23.2623 20.81 23.4123 20.285 23.7123 19.835C24.0123 19.385 24.4323 19.04 24.9723 18.8C25.5123 18.56 26.1373 18.44 26.8473 18.44C27.8573 18.44 28.6823 18.695 29.3223 19.205C29.9723 19.705 30.3323 20.395 30.4023 21.275H28.5123C28.4823 20.895 28.3023 20.57 27.9723 20.3C27.6423 20.03 27.2073 19.895 26.6673 19.895C26.1773 19.895 25.7773 20.02 25.4673 20.27C25.1573 20.52 25.0023 20.88 25.0023 21.35C25.0023 21.67 25.0973 21.935 25.2873 22.145C25.4873 22.345 25.7373 22.505 26.0373 22.625C26.3373 22.745 26.7473 22.875 27.2673 23.015C27.9573 23.205 28.5173 23.395 28.9473 23.585C29.3873 23.775 29.7573 24.07 30.0573 24.47C30.3673 24.86 30.5223 25.385 30.5223 26.045C30.5223 26.575 30.3773 27.075 30.0873 27.545C29.8073 28.015 29.3923 28.395 28.8423 28.685C28.3023 28.965 27.6623 29.105 26.9223 29.105ZM40.115 24.665C40.115 24.975 40.095 25.255 40.055 25.505H33.74C33.79 26.165 34.035 26.695 34.475 27.095C34.915 27.495 35.455 27.695 36.095 27.695C37.015 27.695 37.665 27.31 38.045 26.54H39.89C39.64 27.3 39.185 27.925 38.525 28.415C37.875 28.895 37.065 29.135 36.095 29.135C35.305 29.135 34.595 28.96 33.965 28.61C33.345 28.25 32.855 27.75 32.495 27.11C32.145 26.46 31.97 25.71 31.97 24.86C31.97 24.01 32.14 23.265 32.48 22.625C32.83 21.975 33.315 21.475 33.935 21.125C34.565 20.775 35.285 20.6 36.095 20.6C36.875 20.6 37.57 20.77 38.18 21.11C38.79 21.45 39.265 21.93 39.605 22.55C39.945 23.16 40.115 23.865 40.115 24.665ZM38.33 24.125C38.32 23.495 38.095 22.99 37.655 22.61C37.215 22.23 36.67 22.04 36.02 22.04C35.43 22.04 34.925 22.23 34.505 22.61C34.085 22.98 33.835 23.485 33.755 24.125H38.33ZM49.3729 24.665C49.3729 24.975 49.3529 25.255 49.3129 25.505H42.9979C43.0479 26.165 43.2929 26.695 43.7329 27.095C44.1729 27.495 44.7129 27.695 45.3529 27.695C46.2729 27.695 46.9229 27.31 47.3029 26.54H49.1479C48.8979 27.3 48.4429 27.925 47.7829 28.415C47.1329 28.895 46.3229 29.135 45.3529 29.135C44.5629 29.135 43.8529 28.96 43.2229 28.61C42.6029 28.25 42.1129 27.75 41.7529 27.11C41.4029 26.46 41.2279 25.71 41.2279 24.86C41.2279 24.01 41.3979 23.265 41.7379 22.625C42.0879 21.975 42.5729 21.475 43.1929 21.125C43.8229 20.775 44.5429 20.6 45.3529 20.6C46.1329 20.6 46.8279 20.77 47.4379 21.11C48.0479 21.45 48.5229 21.93 48.8629 22.55C49.2029 23.16 49.3729 23.865 49.3729 24.665ZM47.5879 24.125C47.5779 23.495 47.3529 22.99 46.9129 22.61C46.4729 22.23 45.9279 22.04 45.2779 22.04C44.6879 22.04 44.1829 22.23 43.7629 22.61C43.3429 22.98 43.0929 23.485 43.0129 24.125H47.5879ZM56.6621 17.9V29H54.9521V17.9H56.6621ZM59.7772 19.64C59.4672 19.64 59.2072 19.535 58.9972 19.325C58.7872 19.115 58.6822 18.855 58.6822 18.545C58.6822 18.235 58.7872 17.975 58.9972 17.765C59.2072 17.555 59.4672 17.45 59.7772 17.45C60.0772 17.45 60.3322 17.555 60.5422 17.765C60.7522 17.975 60.8572 18.235 60.8572 18.545C60.8572 18.855 60.7522 19.115 60.5422 19.325C60.3322 19.535 60.0772 19.64 59.7772 19.64ZM60.6172 20.735V29H58.9072V20.735H60.6172ZM66.0573 27.47L68.3973 20.735H70.2123L67.0623 29H65.0223L61.8873 20.735H63.7173L66.0573 27.47ZM79.0799 24.665C79.0799 24.975 79.0599 25.255 79.0199 25.505H72.7049C72.7549 26.165 72.9999 26.695 73.4399 27.095C73.8799 27.495 74.4199 27.695 75.0599 27.695C75.9799 27.695 76.6299 27.31 77.0099 26.54H78.8549C78.6049 27.3 78.1499 27.925 77.4899 28.415C76.8399 28.895 76.0299 29.135 75.0599 29.135C74.2699 29.135 73.5599 28.96 72.9299 28.61C72.3099 28.25 71.8199 27.75 71.4599 27.11C71.1099 26.46 70.9349 25.71 70.9349 24.86C70.9349 24.01 71.1049 23.265 71.4449 22.625C71.7949 21.975 72.2799 21.475 72.8999 21.125C73.5299 20.775 74.2499 20.6 75.0599 20.6C75.8399 20.6 76.5349 20.77 77.1449 21.11C77.7549 21.45 78.2299 21.93 78.5699 22.55C78.9099 23.16 79.0799 23.865 79.0799 24.665ZM77.2949 24.125C77.2849 23.495 77.0599 22.99 76.6199 22.61C76.1799 22.23 75.6349 22.04 74.9849 22.04C74.3949 22.04 73.8899 22.23 73.4699 22.61C73.0499 22.98 72.7999 23.485 72.7199 24.125H77.2949Z" fill="#396DF2"/>
<path fill-rule="evenodd" clip-rule="evenodd" d="M95 24C95 20.134 98.134 17 102 17C102.552 17 103 16.5523 103 16C103 15.4477 102.552 15 102 15C97.0294 15 93 19.0294 93 24C93 28.9706 97.0294 33 102 33C106.971 33 111 28.9706 111 24C111 23.4477 110.552 23 110 23C109.448 23 109 23.4477 109 24C109 27.866 105.866 31 102 31C98.134 31 95 27.866 95 24ZM106 15C105.448 15 105 15.4477 105 16C105 16.5523 105.448 17 106 17H107.586L101.293 23.2929C100.902 23.6834 100.902 24.3166 101.293 24.7071C101.683 25.0976 102.317 25.0976 102.707 24.7071L109 18.4142V20C109 20.5523 109.448 21 110 21C110.552 21 111 20.5523 111 20V16C111 15.4477 110.552 15 110 15H106Z" fill="#6070FF"/>
<rect x="0.5" y="0.5" width="135" height="47" rx="7.5" stroke="#6070FF"/>
</svg>
