<svg width="146" height="48" viewBox="0 0 146 48" fill="none" xmlns="http://www.w3.org/2000/svg">
<path d="M22.2836 26.18C22.2836 26.7 22.1586 27.185 21.9086 27.635C21.6586 28.075 21.2786 28.43 20.7686 28.7C20.2586 28.97 19.6336 29.105 18.8936 29.105C18.1736 29.105 17.5286 28.98 16.9586 28.73C16.3886 28.47 15.9336 28.11 15.5936 27.65C15.2536 27.19 15.0586 26.66 15.0086 26.06H16.8386C16.8886 26.52 17.0836 26.915 17.4236 27.245C17.7736 27.575 18.2386 27.74 18.8186 27.74C19.3386 27.74 19.7386 27.6 20.0186 27.32C20.3086 27.04 20.4536 26.68 20.4536 26.24C20.4536 25.86 20.3486 25.55 20.1386 25.31C19.9286 25.06 19.6686 24.865 19.3586 24.725C19.0486 24.585 18.6236 24.425 18.0836 24.245C17.4236 24.035 16.8836 23.825 16.4636 23.615C16.0536 23.405 15.7036 23.1 15.4136 22.7C15.1236 22.3 14.9786 21.775 14.9786 21.125C14.9786 20.555 15.1186 20.055 15.3986 19.625C15.6786 19.195 16.0786 18.865 16.5986 18.635C17.1186 18.395 17.7186 18.275 18.3986 18.275C19.4786 18.275 20.3336 18.535 20.9636 19.055C21.6036 19.575 21.9686 20.255 22.0586 21.095H20.2136C20.1436 20.695 19.9536 20.355 19.6436 20.075C19.3436 19.785 18.9286 19.64 18.3986 19.64C17.9186 19.64 17.5336 19.765 17.2436 20.015C16.9536 20.255 16.8086 20.605 16.8086 21.065C16.8086 21.425 16.9086 21.725 17.1086 21.965C17.3086 22.195 17.5586 22.38 17.8586 22.52C18.1686 22.65 18.5886 22.805 19.1186 22.985C19.7886 23.195 20.3336 23.41 20.7536 23.63C21.1836 23.84 21.5436 24.15 21.8336 24.56C22.1336 24.97 22.2836 25.51 22.2836 26.18ZM31.6754 24.47C31.6754 24.75 31.6554 24.995 31.6154 25.205H25.2554C25.2854 26.055 25.5204 26.685 25.9604 27.095C26.4004 27.505 26.9454 27.71 27.5954 27.71C28.1654 27.71 28.6454 27.565 29.0354 27.275C29.4354 26.985 29.6804 26.6 29.7704 26.12H31.6004C31.4904 26.7 31.2604 27.215 30.9104 27.665C30.5604 28.115 30.1054 28.47 29.5454 28.73C28.9854 28.98 28.3604 29.105 27.6704 29.105C26.8704 29.105 26.1604 28.935 25.5404 28.595C24.9304 28.255 24.4504 27.765 24.1004 27.125C23.7504 26.485 23.5754 25.73 23.5754 24.86C23.5754 24 23.7504 23.25 24.1004 22.61C24.4504 21.97 24.9304 21.48 25.5404 21.14C26.1604 20.8 26.8704 20.63 27.6704 20.63C28.4804 20.63 29.1854 20.8 29.7854 21.14C30.3954 21.47 30.8604 21.93 31.1804 22.52C31.5104 23.1 31.6754 23.75 31.6754 24.47ZM29.9504 24.425C29.9704 23.885 29.8754 23.435 29.6654 23.075C29.4654 22.705 29.1854 22.435 28.8254 22.265C28.4754 22.085 28.0904 21.995 27.6704 21.995C27.0004 21.995 26.4404 22.2 25.9904 22.61C25.5404 23.02 25.2954 23.625 25.2554 24.425H29.9504ZM41.0065 24.47C41.0065 24.75 40.9865 24.995 40.9465 25.205H34.5865C34.6165 26.055 34.8515 26.685 35.2915 27.095C35.7315 27.505 36.2765 27.71 36.9265 27.71C37.4965 27.71 37.9765 27.565 38.3665 27.275C38.7665 26.985 39.0115 26.6 39.1015 26.12H40.9315C40.8215 26.7 40.5915 27.215 40.2415 27.665C39.8915 28.115 39.4365 28.47 38.8765 28.73C38.3165 28.98 37.6915 29.105 37.0015 29.105C36.2015 29.105 35.4915 28.935 34.8715 28.595C34.2615 28.255 33.7815 27.765 33.4315 27.125C33.0815 26.485 32.9065 25.73 32.9065 24.86C32.9065 24 33.0815 23.25 33.4315 22.61C33.7815 21.97 34.2615 21.48 34.8715 21.14C35.4915 20.8 36.2015 20.63 37.0015 20.63C37.8115 20.63 38.5165 20.8 39.1165 21.14C39.7265 21.47 40.1915 21.93 40.5115 22.52C40.8415 23.1 41.0065 23.75 41.0065 24.47ZM39.2815 24.425C39.3015 23.885 39.2065 23.435 38.9965 23.075C38.7965 22.705 38.5165 22.435 38.1565 22.265C37.8065 22.085 37.4215 21.995 37.0015 21.995C36.3315 21.995 35.7715 22.2 35.3215 22.61C34.8715 23.02 34.6265 23.625 34.5865 24.425H39.2815ZM53.1332 26.18C53.1332 26.7 53.0082 27.185 52.7582 27.635C52.5082 28.075 52.1282 28.43 51.6182 28.7C51.1082 28.97 50.4832 29.105 49.7432 29.105C49.0232 29.105 48.3782 28.98 47.8082 28.73C47.2382 28.47 46.7832 28.11 46.4432 27.65C46.1032 27.19 45.9082 26.66 45.8582 26.06H47.6882C47.7382 26.52 47.9332 26.915 48.2732 27.245C48.6232 27.575 49.0882 27.74 49.6682 27.74C50.1882 27.74 50.5882 27.6 50.8682 27.32C51.1582 27.04 51.3032 26.68 51.3032 26.24C51.3032 25.86 51.1982 25.55 50.9882 25.31C50.7782 25.06 50.5182 24.865 50.2082 24.725C49.8982 24.585 49.4732 24.425 48.9332 24.245C48.2732 24.035 47.7332 23.825 47.3132 23.615C46.9032 23.405 46.5532 23.1 46.2632 22.7C45.9732 22.3 45.8282 21.775 45.8282 21.125C45.8282 20.555 45.9682 20.055 46.2482 19.625C46.5282 19.195 46.9282 18.865 47.4482 18.635C47.9682 18.395 48.5682 18.275 49.2482 18.275C50.3282 18.275 51.1832 18.535 51.8132 19.055C52.4532 19.575 52.8182 20.255 52.9082 21.095H51.0632C50.9932 20.695 50.8032 20.355 50.4932 20.075C50.1932 19.785 49.7782 19.64 49.2482 19.64C48.7682 19.64 48.3832 19.765 48.0932 20.015C47.8032 20.255 47.6582 20.605 47.6582 21.065C47.6582 21.425 47.7582 21.725 47.9582 21.965C48.1582 22.195 48.4082 22.38 48.7082 22.52C49.0182 22.65 49.4382 22.805 49.9682 22.985C50.6382 23.195 51.1832 23.41 51.6032 23.63C52.0332 23.84 52.3932 24.15 52.6832 24.56C52.9832 24.97 53.1332 25.51 53.1332 26.18ZM58.6251 20.63C59.4251 20.63 60.1451 20.8 60.7851 21.14C61.4251 21.48 61.9251 21.97 62.2851 22.61C62.6451 23.25 62.8251 24 62.8251 24.86C62.8251 25.73 62.6451 26.485 62.2851 27.125C61.9251 27.765 61.4251 28.255 60.7851 28.595C60.1451 28.935 59.4251 29.105 58.6251 29.105C57.8251 29.105 57.1051 28.935 56.4651 28.595C55.8351 28.255 55.3351 27.765 54.9651 27.125C54.6051 26.475 54.4251 25.72 54.4251 24.86C54.4251 24 54.6051 23.25 54.9651 22.61C55.3351 21.97 55.8351 21.48 56.4651 21.14C57.1051 20.8 57.8251 20.63 58.6251 20.63ZM58.6251 22.115C58.1851 22.115 57.7801 22.215 57.4101 22.415C57.0401 22.615 56.7401 22.925 56.5101 23.345C56.2901 23.755 56.1801 24.26 56.1801 24.86C56.1801 25.47 56.2901 25.98 56.5101 26.39C56.7401 26.8 57.0401 27.105 57.4101 27.305C57.7801 27.505 58.1851 27.605 58.6251 27.605C59.0651 27.605 59.4701 27.505 59.8401 27.305C60.2101 27.105 60.5051 26.8 60.7251 26.39C60.9551 25.98 61.0701 25.47 61.0701 24.86C61.0701 24.26 60.9551 23.755 60.7251 23.345C60.5051 22.925 60.2101 22.615 59.8401 22.415C59.4701 22.215 59.0651 22.115 58.6251 22.115ZM72.0891 20.735V29H70.3641V27.2C70.1541 27.81 69.7891 28.285 69.2691 28.625C68.7491 28.955 68.1441 29.12 67.4541 29.12C66.4941 29.12 65.7241 28.81 65.1441 28.19C64.5641 27.57 64.2741 26.685 64.2741 25.535V20.735H65.9841V25.355C65.9841 26.105 66.1741 26.685 66.5541 27.095C66.9341 27.495 67.4541 27.695 68.1141 27.695C68.7941 27.695 69.3391 27.475 69.7491 27.035C70.1591 26.595 70.3641 25.955 70.3641 25.115V20.735H72.0891ZM75.8471 22.355C76.1271 21.815 76.5271 21.39 77.0471 21.08C77.5671 20.76 78.1671 20.6 78.8471 20.6V22.46H78.3371C77.5871 22.46 76.9821 22.645 76.5221 23.015C76.0721 23.375 75.8471 23.975 75.8471 24.815V29H74.1371V20.735H75.8471V22.355ZM83.8033 20.63C84.8733 20.63 85.7583 20.915 86.4583 21.485C87.1583 22.045 87.5933 22.81 87.7633 23.78H85.9483C85.8483 23.26 85.6033 22.855 85.2133 22.565C84.8333 22.265 84.3533 22.115 83.7733 22.115C83.1133 22.115 82.5633 22.35 82.1233 22.82C81.6833 23.28 81.4633 23.96 81.4633 24.86C81.4633 25.76 81.6833 26.445 82.1233 26.915C82.5633 27.385 83.1133 27.62 83.7733 27.62C84.3533 27.62 84.8333 27.47 85.2133 27.17C85.6033 26.87 85.8483 26.46 85.9483 25.94H87.7633C87.5933 26.91 87.1583 27.68 86.4583 28.25C85.7583 28.82 84.8733 29.105 83.8033 29.105C83.0033 29.105 82.2933 28.935 81.6733 28.595C81.0633 28.255 80.5833 27.765 80.2333 27.125C79.8833 26.485 79.7083 25.73 79.7083 24.86C79.7083 24 79.8833 23.25 80.2333 22.61C80.5833 21.97 81.0633 21.48 81.6733 21.14C82.2933 20.8 83.0033 20.63 83.8033 20.63ZM97.0954 24.47C97.0954 24.75 97.0754 24.995 97.0354 25.205H90.6754C90.7054 26.055 90.9404 26.685 91.3804 27.095C91.8204 27.505 92.3654 27.71 93.0154 27.71C93.5854 27.71 94.0654 27.565 94.4554 27.275C94.8554 26.985 95.1004 26.6 95.1904 26.12H97.0204C96.9104 26.7 96.6804 27.215 96.3304 27.665C95.9804 28.115 95.5254 28.47 94.9654 28.73C94.4054 28.98 93.7804 29.105 93.0904 29.105C92.2904 29.105 91.5804 28.935 90.9604 28.595C90.3504 28.255 89.8704 27.765 89.5204 27.125C89.1704 26.485 88.9954 25.73 88.9954 24.86C88.9954 24 89.1704 23.25 89.5204 22.61C89.8704 21.97 90.3504 21.48 90.9604 21.14C91.5804 20.8 92.2904 20.63 93.0904 20.63C93.9004 20.63 94.6054 20.8 95.2054 21.14C95.8154 21.47 96.2804 21.93 96.6004 22.52C96.9304 23.1 97.0954 23.75 97.0954 24.47ZM95.3704 24.425C95.3904 23.885 95.2954 23.435 95.0854 23.075C94.8854 22.705 94.6054 22.435 94.2454 22.265C93.8954 22.085 93.5104 21.995 93.0904 21.995C92.4204 21.995 91.8604 22.2 91.4104 22.61C90.9604 23.02 90.7154 23.625 90.6754 24.425H95.3704Z" fill="#6070FF"/>
<g clip-path="url(#clip0_39_520)">
<path d="M128.999 21.4611C128.999 20.3212 128.633 19.2504 127.934 18.3178C128.2 17.4197 128.267 16.2798 128.2 14.9672C128.167 14.4145 127.735 14 127.202 14C126.903 14 124.374 14.0345 122.91 15.3817C121.646 15.1399 120.315 15.1399 119.017 15.3817C117.587 14.0345 115.058 14 114.725 14C114.193 14 113.76 14.4145 113.727 14.9672C113.627 16.2798 113.727 17.4197 113.993 18.3178C113.295 19.285 112.929 20.3558 112.929 21.4611C112.929 23.8791 114.725 26.0553 117.454 27.0915C117.354 27.2988 117.287 27.5406 117.221 27.7824C114.326 27.4715 112.962 24.7427 112.895 24.639C112.662 24.1209 112.064 23.9136 111.564 24.19C111.065 24.4318 110.866 25.0535 111.132 25.5717C111.199 25.7444 113.028 29.4404 117.054 29.8549V32.9637C117.054 33.5509 117.487 34 118.052 34H123.875C124.441 34 124.873 33.5509 124.873 32.9637V28.8532C124.873 28.2314 124.74 27.6442 124.507 27.1261C127.202 26.0553 128.999 23.9136 128.999 21.4611Z" fill="#6070FF"/>
</g>
<rect x="0.5" y="0.5" width="145" height="47" rx="7.5" stroke="#6070FF"/>
<defs>
<clipPath id="clip0_39_520">
<rect width="18" height="20" fill="white" transform="translate(111 14)"/>
</clipPath>
</defs>
</svg>
